<svg xmlns="http://www.w3.org/2000/svg" viewBox="0 0 48 48" width="48px" height="48px">
  <path fill="#1565C0" d="M13.5,24.3c0,0,0-0.1,0-0.1c0-0.1,0-0.1,0.1-0.2l0.1-0.1c0,0,0.1-0.1,0.1-0.1c0.1,0,0.1-0.1,0.2-0.1l0.1,0c0.1,0,0.2,0,0.3,0h4.3l0.2,0c0.1,0,0.2,0,0.3-0.1l0.1,0c0.1,0,0.1-0.1,0.2-0.1c0,0,0.1-0.1,0.1-0.1l0.1-0.1c0-0.1,0.1-0.1,0.1-0.2l0-0.1c0-0.1,0-0.2,0-0.3v-3.5c0-0.1,0-0.2,0-0.3l0-0.1c0-0.1,0-0.1-0.1-0.2l-0.1-0.1c0,0-0.1-0.1-0.1-0.1c-0.1,0-0.1-0.1-0.2-0.1l-0.1,0c-0.1,0-0.2-0.1-0.3-0.1l-0.2,0h-4.3c-0.1,0-0.2,0-0.3,0l-0.1,0c-0.1,0-0.1,0.1-0.2,0.1c0,0-0.1,0.1-0.1,0.1l-0.1,0.1c0,0.1-0.1,0.1-0.1,0.2l0,0.1c0,0.1,0,0.2,0,0.3v3.5C13.5,24.1,13.5,24.2,13.5,24.3z"/>
  <path fill="#1565C0" d="M27.5,24.3c0,0,0-0.1,0-0.1c0-0.1,0-0.1,0.1-0.2l0.1-0.1c0,0,0.1-0.1,0.1-0.1c0.1,0,0.1-0.1,0.2-0.1l0.1,0c0.1,0,0.2,0,0.3,0h4.3l0.2,0c0.1,0,0.2,0,0.3-0.1l0.1,0c0.1,0,0.1-0.1,0.2-0.1c0,0,0.1-0.1,0.1-0.1l0.1-0.1c0-0.1,0.1-0.1,0.1-0.2l0-0.1c0-0.1,0-0.2,0-0.3v-3.5c0-0.1,0-0.2,0-0.3l0-0.1c0-0.1,0-0.1-0.1-0.2l-0.1-0.1c0,0-0.1-0.1-0.1-0.1c-0.1,0-0.1-0.1-0.2-0.1l-0.1,0c-0.1,0-0.2-0.1-0.3-0.1l-0.2,0h-4.3c-0.1,0-0.2,0-0.3,0l-0.1,0c-0.1,0-0.1,0.1-0.2,0.1c0,0-0.1,0.1-0.1,0.1l-0.1,0.1c0,0.1-0.1,0.1-0.1,0.2l0,0.1c0,0.1,0,0.2,0,0.3v3.5C27.5,24.1,27.5,24.2,27.5,24.3z"/>
</svg> 