<svg xmlns="http://www.w3.org/2000/svg" viewBox="0 0 48 48" width="48px" height="48px">
  <path fill="#1565C0" d="M45,35c0,2.209-1.791,4-4,4H7c-2.209,0-4-1.791-4-4V13c0-2.209,1.791-4,4-4h34c2.209,0,4,1.791,4,4V35z"/>
  <path fill="#FFF" d="M15.186 19l-2.626 7.832c0 0-.667-3.313-.733-3.729-1.495-3.411-3.701-3.221-3.701-3.221L10.726 30v-.002h3.161L18.258 19H15.186zM17.689 30L20.56 19h2.948l-2.867 11H17.689zM28.093 19h3.002l2.922 11h-2.809l-.406-1.537h-3.13L27.287 30h-2.892L28.093 19zM29.521 26.329l-.751-2.889-.332-1.39-.235 1.39-.688 2.889H29.521zM34.857 19h3.436L36.559 30h-2.623l2.316-8.541L33.837 30h-2.643L29.647 19h2.862l1.143 7.936L34.857 19z"/>
</svg> 